<?xml version="1.0" standalone="no"?>
<!DOCTYPE svg PUBLIC "-//W3C//DTD SVG 20010904//EN"
 "http://www.w3.org/TR/2001/REC-SVG-20010904/DTD/svg10.dtd">
<svg version="1.0" xmlns="http://www.w3.org/2000/svg"
 width="558.000000pt" height="447.000000pt" viewBox="0 0 558.000000 447.000000"
 preserveAspectRatio="xMidYMid meet">
<metadata>
Created by potrace 1.16, written by Peter Selinger 2001-2019
</metadata>
<g transform="translate(0.000000,447.000000) scale(0.100000,-0.100000)"
fill="#000000" stroke="none">
<path d="M0 2235 l0 -2235 2790 0 2790 0 0 2235 0 2235 -2790 0 -2790 0 0
-2235z m2263 1799 c14 -14 29 -40 33 -57 3 -18 13 -49 21 -69 l15 -38 595 0
c576 0 633 -3 633 -30 0 -5 -15 -42 -34 -82 -19 -40 -51 -111 -71 -158 -20
-47 -45 -103 -54 -125 -57 -128 -80 -184 -91 -212 -7 -18 -18 -37 -24 -42 -8
-6 -164 -11 -410 -12 -379 -2 -398 -1 -416 17 -16 17 -113 264 -145 369 -13
45 -21 66 -41 112 -8 17 -14 36 -14 42 0 10 -22 66 -41 103 -5 10 -9 25 -9 33
0 9 -7 29 -15 45 l-16 30 -119 0 c-127 0 -150 8 -150 52 0 41 26 47 181 48
144 0 147 0 172 -26z m412 -879 c34 -17 55 -50 55 -88 0 -34 -34 -82 -69 -96
-39 -17 -76 -7 -112 29 -39 39 -40 89 -1 129 43 44 74 51 127 26z m468 -25
c38 -43 37 -92 -3 -130 -40 -37 -80 -46 -120 -25 -65 34 -74 124 -16 171 43
34 100 28 139 -16z"/>
<path d="M2380 3745 c0 -3 7 -21 14 -40 l15 -35 390 0 390 0 15 -22 c20 -28
20 -33 0 -52 -13 -14 -62 -16 -380 -16 -401 0 -390 2 -364 -60 l12 -30 319 0
319 0 6 -24 c3 -13 1 -34 -6 -45 -10 -21 -17 -21 -301 -21 -316 0 -320 -1
-285 -55 l17 -25 336 2 336 3 39 90 c22 50 55 124 75 165 45 96 64 150 57 161
-5 9 -1004 13 -1004 4z"/>
</g>
</svg>
