<?xml version="1.0" standalone="no"?>
<!DOCTYPE svg PUBLIC "-//W3C//DTD SVG 20010904//EN"
 "http://www.w3.org/TR/2001/REC-SVG-20010904/DTD/svg10.dtd">
<svg version="1.0" xmlns="http://www.w3.org/2000/svg"
 width="361.000000pt" height="438.000000pt" viewBox="0 0 361.000000 438.000000"
 preserveAspectRatio="xMidYMid meet">
<metadata>
Created by potrace 1.16, written by Peter Selinger 2001-2019
</metadata>
<g transform="translate(0.000000,438.000000) scale(0.100000,-0.100000)"
fill="#000000" stroke="none">
<path d="M0 2190 l0 -2190 1805 0 1805 0 0 2190 0 2190 -1805 0 -1805 0 0
-2190z m916 1918 c39 -30 37 -26 84 -160 l42 -118 942 0 c853 0 944 -2 965
-16 33 -23 26 -52 -56 -234 -39 -85 -130 -292 -203 -460 -72 -168 -141 -313
-152 -322 -19 -17 -64 -18 -648 -18 -586 0 -629 1 -650 18 -21 17 -79 165
-225 577 -81 228 -191 527 -206 558 l-12 27 -171 1 c-204 1 -205 1 -233 34
-31 36 -29 71 6 106 l29 29 230 0 c221 0 230 -1 258 -22z m644 -1394 c22 -9
40 -20 40 -25 0 -5 6 -9 13 -9 7 0 24 -19 37 -41 94 -169 -142 -339 -269 -194
-80 92 -57 210 51 264 52 25 75 26 128 5z m710 -9 c57 -29 90 -84 90 -151 0
-65 -30 -110 -94 -140 -63 -29 -88 -30 -144 -3 -59 29 -96 86 -96 148 0 68 28
110 94 144 57 29 96 29 150 2z"/>
<path d="M1124 3626 c-3 -7 5 -34 16 -60 l22 -46 599 0 c417 0 605 -3 622 -11
47 -21 60 -80 26 -123 l-20 -26 -575 0 -574 0 -6 -24 c-3 -13 1 -40 10 -60
l15 -36 486 0 486 0 24 -25 c32 -31 34 -86 5 -115 -19 -19 -33 -20 -470 -20
-392 0 -451 -2 -456 -15 -8 -21 2 -58 24 -85 l18 -22 513 1 c308 1 519 5 526
11 12 10 18 23 129 275 41 94 93 209 115 257 44 94 50 122 25 132 -9 3 -362 6
-785 6 -645 0 -770 -2 -775 -14z"/>
</g>
</svg>
