<?xml version="1.0" standalone="no"?>
<!DOCTYPE svg PUBLIC "-//W3C//DTD SVG 20010904//EN"
 "http://www.w3.org/TR/2001/REC-SVG-20010904/DTD/svg10.dtd">
<svg version="1.0" xmlns="http://www.w3.org/2000/svg"
 width="823.000000pt" height="303.000000pt" viewBox="0 0 823.000000 303.000000"
 preserveAspectRatio="xMidYMid meet">
<metadata>
Created by potrace 1.16, written by Peter Selinger 2001-2019
</metadata>
<g transform="translate(0.000000,303.000000) scale(0.100000,-0.100000)"
fill="#000000" stroke="none">
<path d="M0 1515 l0 -1515 4115 0 4115 0 0 1515 0 1515 -4115 0 -4115 0 0
-1515z m852 1128 c9 -10 28 -55 43 -100 l27 -83 538 0 539 0 15 -22 c9 -12 16
-29 16 -38 0 -8 -48 -122 -107 -253 -88 -196 -112 -241 -135 -253 -36 -19
-684 -20 -737 -1 -39 14 -42 20 -198 435 l-88 233 -87 -2 c-54 -1 -93 3 -101
10 -12 9 -15 40 -8 84 0 4 61 7 134 7 115 0 136 -2 149 -17z m432 -838 c59
-55 13 -155 -72 -155 -33 0 -45 6 -66 31 -35 41 -34 83 3 120 39 38 96 40 135
4z m380 0 c39 -36 38 -85 -2 -127 -28 -31 -84 -38 -113 -15 -53 41 -59 99 -17
145 30 32 96 31 132 -3z"/>
<path d="M981 2298 c11 -29 23 -56 25 -60 3 -4 192 -8 419 -8 l415 0 19 38
c10 20 22 47 25 60 l7 22 -465 0 -466 0 21 -52z"/>
<path d="M1054 2103 c4 -10 14 -37 24 -60 l17 -43 321 0 320 0 22 45 c39 81
66 75 -344 75 -344 0 -366 -1 -360 -17z"/>
</g>
</svg>
