<?xml version="1.0" standalone="no"?>
<!DOCTYPE svg PUBLIC "-//W3C//DTD SVG 20010904//EN"
 "http://www.w3.org/TR/2001/REC-SVG-20010904/DTD/svg10.dtd">
<svg version="1.0" xmlns="http://www.w3.org/2000/svg"
 width="1119.000000pt" height="413.000000pt" viewBox="0 0 1119.000000 413.000000"
 preserveAspectRatio="xMidYMid meet">
<metadata>
Created by potrace 1.16, written by Peter Selinger 2001-2019
</metadata>
<g transform="translate(0.000000,413.000000) scale(0.100000,-0.100000)"
fill="#000000" stroke="none">
<path d="M4120 2784 c-214 -58 -335 -291 -274 -528 28 -111 98 -197 201 -249
142 -72 350 -57 486 36 l47 32 -2 170 -3 170 -167 3 -168 2 0 -60 0 -60 100 0
100 0 0 -79 0 -79 -52 -23 c-73 -33 -195 -33 -254 -2 -99 53 -145 129 -152
251 -4 77 -3 87 28 148 80 162 264 201 425 90 l40 -27 43 47 43 47 -23 24
c-79 85 -275 125 -418 87z"/>
<path d="M4707 2794 c-4 -4 -7 -189 -7 -410 l0 -403 34 -7 c53 -9 96 3 97 29
1 12 1 25 0 30 -2 13 16 7 33 -12 34 -37 114 -63 181 -59 167 10 278 138 271
313 -4 115 -63 208 -164 257 -90 43 -228 23 -287 -42 l-20 -22 -5 163 -5 164
-60 3 c-34 2 -64 0 -68 -4z m383 -379 c123 -62 121 -252 -2 -313 -88 -44 -182
-11 -228 79 -77 149 81 309 230 234z"/>
<path d="M6800 2388 l0 -408 65 0 65 0 0 30 c0 17 3 30 6 30 3 0 22 -13 42
-30 71 -57 196 -64 290 -16 84 43 134 120 147 227 19 153 -68 287 -210 324
-78 20 -141 11 -209 -30 l-54 -32 -5 34 c-3 19 -3 88 0 153 l6 118 -72 4 -71
3 0 -407z m390 27 c125 -63 116 -271 -14 -320 -64 -25 -126 -14 -176 31 -49
45 -64 81 -58 148 11 127 135 197 248 141z"/>
<path d="M8200 2385 l0 -405 23 -6 c13 -3 41 -4 63 -2 l39 3 3 408 2 407 -65
0 -65 0 0 -405z"/>
<path d="M675 2764 c-16 -9 -41 -26 -53 -38 -54 -48 -52 -21 -52 -792 0 -707
0 -718 21 -761 27 -56 81 -101 166 -137 37 -17 194 -88 348 -159 255 -118 408
-186 599 -269 62 -27 77 -30 155 -26 96 4 52 -14 846 347 285 130 314 145 357
191 36 38 49 62 58 102 8 38 10 255 8 744 l-3 690 -25 36 c-13 20 -42 48 -65
62 -37 25 -47 26 -130 24 l-90 -3 0 -60 0 -60 74 -5 c66 -4 76 -8 94 -32 30
-40 17 -91 -31 -123 -76 -50 -462 -213 -857 -363 -190 -72 -201 -75 -269 -69
-93 9 -642 221 -1006 390 -92 43 -122 72 -122 122 0 55 20 69 105 75 l72 5 0
60 0 60 -85 2 c-62 2 -93 -2 -115 -13z m275 -514 c184 -82 534 -220 724 -286
146 -51 202 -49 381 14 267 95 712 275 857 348 37 19 72 34 78 34 7 0 10 -171
8 -560 l-3 -560 -30 -29 c-18 -18 -121 -71 -265 -137 -129 -58 -298 -136 -375
-171 -504 -232 -458 -224 -687 -123 -195 87 -791 361 -859 396 -83 42 -79 10
-79 638 l0 555 33 -19 c17 -10 115 -55 217 -100z"/>
<path d="M5644 2550 c-148 -16 -253 -132 -257 -283 -2 -125 57 -223 168 -277
41 -20 66 -24 136 -24 73 0 93 4 143 28 68 33 127 102 146 170 20 71 9 184
-23 238 -48 83 -130 138 -222 151 -16 2 -57 1 -91 -3z m88 -120 c110 -31 160
-156 105 -261 -54 -102 -179 -119 -265 -36 -92 89 -53 261 68 295 47 13 49 14
92 2z"/>
<path d="M6281 2549 c-139 -27 -226 -151 -216 -310 9 -160 126 -269 287 -269
57 0 146 33 163 60 3 5 10 10 16 10 16 0 10 -63 -11 -108 -27 -60 -86 -86
-181 -80 -58 3 -73 8 -108 36 -22 18 -49 32 -60 32 -20 0 -71 -62 -71 -86 0
-18 67 -65 124 -86 70 -27 203 -26 278 2 56 21 115 73 141 125 8 17 19 55 25
85 11 63 17 528 7 559 -5 18 -14 21 -66 21 -58 0 -60 -1 -65 -30 l-6 -30 -42
30 c-39 28 -109 50 -151 49 -11 -1 -40 -5 -64 -10z m181 -145 c68 -43 98 -146
64 -213 -19 -37 -80 -89 -112 -97 -41 -10 -110 2 -143 26 -42 29 -71 89 -71
145 0 136 146 213 262 139z"/>
<path d="M10190 2547 c-150 -34 -242 -161 -226 -314 12 -114 67 -197 162 -244
41 -19 65 -24 139 -24 85 0 94 2 154 36 102 56 151 140 151 260 0 84 -25 146
-85 205 -76 76 -184 106 -295 81z m163 -134 c34 -17 74 -77 82 -124 14 -79
-40 -176 -112 -200 -46 -15 -118 -6 -152 18 -50 37 -71 81 -71 145 0 96 44
159 125 179 37 8 90 1 128 -18z"/>
<path d="M7664 2529 c-105 -40 -166 -133 -172 -261 -4 -65 0 -85 21 -131 48
-106 139 -167 262 -174 56 -4 82 0 129 17 113 43 179 130 192 253 12 123 -47
231 -157 286 -55 27 -72 31 -143 30 -56 0 -97 -6 -132 -20z m178 -99 c22 0 85
-55 104 -91 23 -45 18 -140 -8 -179 -33 -48 -70 -72 -121 -77 -60 -7 -110 11
-146 52 -91 104 -47 264 82 296 17 4 41 6 52 3 11 -2 28 -4 37 -4z"/>
<path d="M8630 2541 c-121 -39 -190 -131 -198 -263 -8 -135 47 -232 163 -288
72 -35 197 -34 275 1 106 49 164 145 164 269 -1 90 -17 132 -75 195 -65 70
-107 88 -214 92 -49 1 -101 -1 -115 -6z m142 -111 c80 -23 128 -89 128 -177
-1 -103 -83 -179 -183 -170 -112 10 -184 132 -143 241 20 52 51 83 103 101 47
17 49 17 95 5z"/>
<path d="M9066 2531 c-3 -5 -1 -22 5 -38 6 -15 49 -136 95 -267 46 -132 89
-243 96 -248 17 -10 89 -10 106 1 14 8 122 300 122 327 0 41 21 -2 64 -133 67
-203 67 -203 119 -203 24 0 51 6 60 13 10 7 54 115 101 252 46 132 89 252 94
266 6 15 8 30 5 33 -4 3 -35 6 -70 6 -76 0 -65 16 -134 -212 -24 -81 -47 -148
-51 -148 -3 0 -32 78 -65 172 -53 157 -61 174 -85 182 -18 6 -38 6 -55 0 -26
-8 -34 -25 -89 -189 l-61 -180 -59 185 -60 185 -66 3 c-36 2 -69 -1 -72 -7z"/>
<path d="M6670 1450 c0 -118 2 -140 15 -140 12 0 15 14 15 68 0 76 16 102 62
102 42 0 58 -28 58 -103 0 -55 3 -67 16 -67 14 0 16 12 12 81 -3 70 -6 83 -27
100 -28 23 -69 24 -99 3 -22 -15 -22 -15 -22 40 0 43 -3 56 -15 56 -13 0 -15
-22 -15 -140z"/>
<path d="M9260 1450 c0 -118 2 -140 15 -140 12 0 15 14 15 68 0 76 16 102 62
102 42 0 58 -28 58 -103 0 -38 4 -67 10 -67 6 0 10 33 10 80 0 67 -3 83 -20
100 -24 24 -67 26 -98 4 -22 -15 -22 -15 -22 40 0 43 -3 56 -15 56 -13 0 -15
-22 -15 -140z"/>
<path d="M4085 1496 c-58 -25 -72 -104 -29 -155 56 -67 174 -24 174 64 0 46
-23 81 -62 94 -39 14 -46 13 -83 -3z m105 -43 c38 -49 4 -123 -57 -123 -33 0
-73 42 -73 78 0 68 88 99 130 45z"/>
<path d="M4803 1495 c-17 -7 -36 -22 -42 -34 -26 -47 -2 -133 41 -147 102 -32
183 58 131 146 -28 48 -73 60 -130 35z m82 -21 c22 -9 46 -59 38 -81 -30 -87
-143 -79 -143 10 0 62 46 93 105 71z"/>
<path d="M5282 1503 c-28 -6 -62 -58 -62 -96 0 -74 65 -120 135 -97 38 12 50
24 40 40 -4 7 -14 5 -28 -5 -30 -21 -73 -19 -97 5 -40 40 -27 50 61 50 l81 0
-7 28 c-13 54 -66 86 -123 75z"/>
<path d="M5933 1495 c-37 -16 -53 -42 -53 -85 0 -77 63 -124 135 -100 40 13
65 52 65 100 0 44 -16 70 -55 86 -42 17 -51 17 -92 -1z m110 -53 c17 -28 17
-37 7 -63 -32 -76 -140 -60 -140 22 0 87 90 115 133 41z"/>
<path d="M6215 1503 c-11 -3 -28 -12 -37 -21 -16 -14 -18 -14 -18 1 0 10 -7
17 -15 17 -13 0 -15 -22 -15 -136 0 -104 3 -135 13 -132 7 3 13 25 15 52 2 35
6 45 15 38 22 -17 64 -22 96 -11 80 28 80 160 0 188 -18 6 -32 10 -33 10 -1
-1 -10 -4 -21 -6z m71 -48 c23 -35 21 -72 -6 -101 -29 -30 -66 -31 -97 -2 -49
46 -16 128 52 128 26 0 39 -6 51 -25z"/>
<path d="M6955 1501 c-64 -27 -82 -118 -34 -167 53 -52 146 -30 169 40 26 79
-59 158 -135 127z m94 -47 c28 -35 26 -69 -4 -99 -33 -34 -77 -33 -104 1 -12
15 -21 37 -21 49 0 38 37 75 75 75 24 0 39 -7 54 -26z"/>
<path d="M7205 1495 c-19 -10 -31 -12 -33 -6 -2 6 -9 11 -16 11 -17 0 -16
-262 2 -267 8 -3 12 10 12 46 0 28 2 51 3 51 2 0 18 -7 36 -16 70 -35 138 19
128 103 -8 75 -69 111 -132 78z m82 -30 c29 -20 37 -59 19 -94 -16 -31 -34
-41 -71 -41 -28 0 -65 43 -65 75 0 59 69 94 117 60z"/>
<path d="M7685 1503 c-11 -3 -30 -14 -42 -25 -71 -66 -5 -188 92 -171 39 7 55
21 72 61 16 38 5 88 -25 115 -20 17 -68 27 -97 20z m82 -45 c47 -44 11 -128
-56 -128 -34 0 -71 39 -71 75 0 64 80 98 127 53z"/>
<path d="M8164 1499 c-22 -6 -37 -20 -49 -46 -16 -33 -16 -42 -4 -78 19 -53
67 -79 121 -64 41 11 55 26 41 40 -6 6 -15 4 -23 -6 -19 -23 -73 -19 -98 8
-38 40 -29 47 58 47 66 0 80 3 80 15 0 29 -31 76 -56 85 -29 11 -28 11 -70 -1z"/>
<path d="M8574 1496 c-58 -25 -70 -119 -21 -163 32 -29 71 -36 112 -19 39 17
50 43 13 31 -62 -20 -85 -18 -106 10 -12 15 -19 31 -16 36 3 5 39 9 80 9 60 0
74 3 74 15 0 29 -31 76 -56 85 -32 13 -42 12 -80 -4z"/>
<path d="M9853 1500 c-37 -15 -56 -55 -50 -103 10 -74 74 -107 140 -73 26 14
27 14 27 -9 0 -25 -42 -65 -69 -65 -9 0 -29 7 -45 15 -27 14 -46 13 -46 -5 0
-12 58 -30 97 -30 25 0 43 8 64 29 28 29 29 32 29 135 0 85 -3 106 -14 106 -8
0 -16 -5 -18 -11 -2 -6 -14 -5 -33 5 -33 18 -50 19 -82 6z m107 -50 c28 -53
-5 -110 -64 -110 -55 0 -84 58 -55 111 22 41 97 40 119 -1z"/>
</g>
</svg>
