<?xml version="1.0" standalone="no"?>
<!DOCTYPE svg PUBLIC "-//W3C//DTD SVG 20010904//EN"
 "http://www.w3.org/TR/2001/REC-SVG-20010904/DTD/svg10.dtd">
<svg version="1.0" xmlns="http://www.w3.org/2000/svg"
 width="361.000000pt" height="438.000000pt" viewBox="0 0 361.000000 438.000000"
 preserveAspectRatio="xMidYMid meet">
<metadata>
Created by potrace 1.16, written by Peter Selinger 2001-2019
</metadata>
<g transform="translate(0.000000,438.000000) scale(0.100000,-0.100000)"
fill="#000000" stroke="none">
<path d="M401 3017 c-44 -14 -98 -71 -112 -116 -7 -24 -9 -331 -7 -926 3 -862
4 -891 23 -930 22 -44 78 -104 115 -122 14 -7 160 -75 325 -152 165 -76 352
-164 415 -194 329 -157 559 -259 602 -268 33 -7 63 -7 96 0 26 5 187 75 357
154 171 80 465 217 655 306 319 149 349 164 392 211 82 88 78 37 78 1024 0
823 -1 873 -19 911 -22 50 -69 91 -119 105 -20 5 -88 10 -149 10 l-113 0 0
-80 0 -80 103 0 c56 0 108 -4 115 -8 9 -6 12 -39 10 -127 l-3 -118 -75 -22
c-120 -36 -529 -161 -730 -225 -102 -32 -268 -84 -369 -115 l-183 -57 -82 24
c-44 14 -207 65 -361 113 -154 48 -368 114 -475 147 -190 57 -387 120 -423
133 -16 7 -17 20 -15 129 l3 121 60 0 c33 0 84 1 113 3 l52 2 0 80 0 80 -122
-1 c-68 -1 -138 -6 -157 -12z m399 -678 c146 -44 423 -130 615 -191 314 -99
356 -109 405 -105 30 3 208 53 395 112 187 59 428 134 535 167 107 32 243 75
302 94 59 19 110 34 113 34 3 0 4 -299 3 -664 -3 -647 -4 -665 -23 -691 -13
-17 -63 -47 -135 -80 -63 -29 -308 -144 -545 -255 -559 -263 -619 -290 -658
-290 -32 0 -89 25 -542 237 -93 44 -303 142 -465 217 -162 76 -306 149 -320
162 l-25 24 -5 663 c-3 364 -4 665 -2 669 1 4 21 0 45 -7 23 -8 161 -51 307
-96z"/>
</g>
</svg>
