<?xml version="1.0" standalone="no"?>
<!DOCTYPE svg PUBLIC "-//W3C//DTD SVG 20010904//EN"
 "http://www.w3.org/TR/2001/REC-SVG-20010904/DTD/svg10.dtd">
<svg version="1.0" xmlns="http://www.w3.org/2000/svg"
 width="878.000000pt" height="704.000000pt" viewBox="0 0 878.000000 704.000000"
 preserveAspectRatio="xMidYMid meet">
<metadata>
Created by potrace 1.16, written by Peter Selinger 2001-2019
</metadata>
<g transform="translate(0.000000,704.000000) scale(0.100000,-0.100000)"
fill="#000000" stroke="none">
<path d="M3031 5287 c-44 -14 -98 -71 -112 -116 -7 -24 -9 -331 -7 -926 3
-862 4 -891 23 -930 22 -44 78 -104 115 -122 14 -7 160 -75 325 -152 165 -76
352 -164 415 -194 329 -157 559 -259 602 -268 33 -7 63 -7 96 0 26 5 187 75
357 154 171 80 465 217 655 306 319 149 349 164 392 211 82 88 78 37 78 1024
0 823 -1 873 -19 911 -22 50 -69 91 -119 105 -20 5 -88 10 -149 10 l-113 0 0
-80 0 -80 103 0 c56 0 108 -4 115 -8 9 -6 12 -39 10 -127 l-3 -118 -75 -22
c-120 -36 -529 -161 -730 -225 -102 -32 -268 -84 -369 -115 l-183 -57 -82 24
c-44 14 -207 65 -361 113 -154 48 -368 114 -475 147 -190 57 -387 120 -423
133 -16 7 -17 20 -15 129 l3 121 60 0 c33 0 84 1 113 3 l52 2 0 80 0 80 -122
-1 c-68 -1 -138 -6 -157 -12z m399 -678 c146 -44 423 -130 615 -191 314 -99
356 -109 405 -105 30 3 208 53 395 112 187 59 428 134 535 167 107 32 243 75
302 94 59 19 110 34 113 34 3 0 4 -299 3 -664 -3 -647 -4 -665 -23 -691 -13
-17 -63 -47 -135 -80 -63 -29 -308 -144 -545 -255 -559 -263 -619 -290 -658
-290 -32 0 -89 25 -542 237 -93 44 -303 142 -465 217 -162 76 -306 149 -320
162 l-25 24 -5 663 c-3 364 -4 665 -2 669 1 4 21 0 45 -7 23 -8 161 -51 307
-96z"/>
<path d="M1223 2235 c-130 -35 -240 -122 -288 -228 -77 -167 -47 -379 70 -505
63 -68 133 -106 235 -128 124 -26 257 -4 363 60 92 56 87 44 87 230 l0 166
-180 0 -180 0 0 -60 0 -60 115 0 115 0 0 -74 c0 -73 0 -75 -33 -95 -51 -31
-153 -54 -214 -48 -142 15 -245 112 -271 257 -44 240 178 433 401 350 29 -11
71 -35 93 -54 l40 -34 48 45 47 46 -31 32 c-91 94 -276 138 -417 100z"/>
<path d="M1827 2234 c-9 -9 -9 -709 -1 -793 l7 -61 58 0 59 0 0 40 c0 47 8 49
41 14 77 -84 241 -91 353 -16 45 30 100 113 117 177 16 59 6 171 -21 233 -73
169 -313 228 -443 108 l-37 -33 -2 166 -3 166 -60 3 c-34 2 -64 0 -68 -4z
m424 -389 c51 -33 79 -90 79 -159 0 -66 -12 -102 -48 -139 -39 -41 -79 -59
-132 -60 -158 -2 -251 201 -147 320 67 76 168 92 248 38z"/>
<path d="M4046 2232 c-3 -5 -5 -199 -3 -431 l2 -421 63 0 62 0 0 40 c0 46 5
49 31 16 49 -62 175 -87 282 -57 64 19 138 86 174 159 23 49 27 69 27 142 0
134 -51 228 -156 285 -47 27 -63 30 -138 30 -75 0 -91 -3 -132 -28 -26 -15
-54 -37 -62 -49 -14 -20 -16 -7 -18 148 l-3 169 -62 3 c-34 2 -64 -1 -67 -6z
m389 -371 c126 -58 155 -221 56 -320 -49 -49 -104 -64 -173 -46 -89 23 -140
91 -140 186 0 83 36 142 105 175 62 29 99 30 152 5z"/>
<path d="M5520 1810 l0 -430 65 0 65 0 0 430 0 430 -65 0 -65 0 0 -430z"/>
<path d="M2787 1989 c-90 -21 -169 -87 -209 -174 -32 -69 -32 -199 -2 -266 53
-113 162 -182 289 -182 131 0 226 47 282 142 47 78 59 144 44 231 -34 187
-209 295 -404 249z m160 -124 c48 -20 71 -41 93 -85 53 -106 17 -225 -85 -277
-77 -40 -199 -4 -241 71 -95 168 61 362 233 291z"/>
<path d="M3466 1984 c-72 -22 -149 -103 -171 -178 -23 -79 -22 -178 3 -244 28
-73 64 -117 125 -152 96 -55 210 -49 301 17 l49 35 -6 -63 c-4 -34 -15 -76
-25 -92 -52 -91 -245 -97 -298 -9 -10 16 -20 17 -68 12 -30 -3 -58 -9 -62 -13
-23 -23 43 -115 106 -147 51 -26 154 -43 214 -35 76 10 162 52 202 99 59 69
64 102 64 453 l0 313 -65 0 -65 0 0 -35 0 -35 -45 35 c-74 56 -160 69 -259 39z
m225 -139 c58 -38 82 -93 77 -176 -3 -49 -10 -76 -24 -96 -98 -132 -290 -94
-325 64 -31 136 60 252 185 239 28 -3 65 -16 87 -31z"/>
<path d="M4985 1984 c-135 -43 -216 -157 -216 -304 -1 -124 61 -229 162 -278
171 -83 368 -22 446 136 24 50 28 69 28 147 0 105 -20 159 -80 220 -81 81
-227 115 -340 79z m184 -124 c83 -42 122 -124 103 -218 -14 -67 -42 -107 -95
-134 -103 -52 -218 -11 -262 94 -68 164 101 336 254 258z"/>
<path d="M5963 1981 c-256 -88 -289 -460 -50 -579 182 -91 405 -7 462 173 27
86 18 196 -22 266 -74 132 -241 192 -390 140z m195 -122 c79 -39 119 -139 93
-235 -32 -117 -164 -172 -271 -113 -131 72 -126 275 9 346 55 29 111 29 169 2z"/>
<path d="M7565 1987 c-68 -23 -101 -44 -147 -96 -74 -82 -97 -202 -62 -321 12
-41 29 -67 72 -110 68 -67 133 -94 232 -94 99 0 164 27 230 93 154 157 116
413 -76 507 -67 33 -184 42 -249 21z m205 -141 c102 -67 107 -244 9 -319 -151
-114 -349 26 -300 210 34 127 181 182 291 109z"/>
<path d="M6420 1974 c0 -4 43 -139 96 -301 l96 -294 61 3 61 3 59 185 c32 102
61 192 64 200 3 8 35 -76 71 -188 l66 -203 60 3 61 3 92 280 c51 154 96 288
99 298 5 15 -2 17 -64 17 l-69 0 -36 -117 c-20 -65 -46 -153 -59 -195 -12 -43
-25 -78 -28 -78 -5 0 -40 102 -110 323 l-22 68 -55 -3 -55 -3 -57 -181 c-32
-99 -61 -189 -65 -200 -10 -22 -10 -21 -83 224 l-48 162 -67 0 c-38 0 -68 -3
-68 -6z"/>
<path d="M4230 825 c0 -122 2 -145 15 -145 12 0 15 15 15 74 0 66 3 77 22 90
27 19 59 21 76 4 7 -7 12 -42 12 -88 0 -62 3 -77 15 -77 12 0 15 16 15 84 0
70 -3 86 -20 103 -24 24 -51 25 -90 5 l-30 -16 0 56 c0 42 -3 55 -15 55 -13 0
-15 -23 -15 -145z"/>
<path d="M1630 879 c0 -7 -10 -9 -26 -5 -18 5 -24 3 -18 -5 5 -8 3 -9 -5 -5
-18 12 -50 -22 -57 -61 -12 -66 35 -123 103 -123 l28 0 -30 16 c-65 34 -85 76
-59 126 25 48 84 51 117 6 18 -24 19 -34 11 -75 -8 -43 -12 -48 -34 -46 -21 2
-22 1 -8 -8 52 -30 99 64 67 134 -14 32 -89 70 -89 46z"/>
<path d="M2330 879 c-39 -16 -59 -39 -66 -76 -12 -65 35 -123 100 -123 33 0
57 10 50 21 -3 5 2 6 10 3 17 -7 46 42 46 78 0 31 -24 74 -39 70 -7 -1 -10 2
-7 7 13 20 -57 35 -94 20z m65 -25 c17 -7 45 -54 45 -78 0 -31 -44 -64 -90
-69 -25 -3 -39 -3 -32 0 9 3 7 12 -8 30 -27 34 -25 69 5 98 24 25 49 31 80 19z"/>
<path d="M2803 875 c-39 -17 -53 -42 -53 -95 0 -33 6 -48 30 -72 28 -27 36
-30 75 -25 47 5 79 23 69 38 -3 5 -14 4 -25 -2 -36 -19 -81 -14 -101 11 -34
42 -25 50 62 50 44 0 80 4 80 9 0 34 -26 75 -56 87 -40 17 -41 17 -81 -1z"/>
<path d="M3472 875 c-35 -16 -52 -48 -52 -101 0 -50 45 -94 95 -94 21 0 34 4
30 10 -3 6 1 7 10 4 21 -8 52 21 65 61 16 48 -8 101 -54 120 -43 18 -52 18
-94 0z m98 -35 c29 -29 30 -83 2 -112 -45 -45 -122 -11 -122 54 0 66 76 102
120 58z"/>
<path d="M3740 873 c-17 -12 -25 -13 -28 -5 -2 7 -10 12 -18 12 -11 0 -14 -26
-14 -140 0 -118 2 -140 15 -140 12 0 15 13 15 55 0 51 1 55 19 46 29 -16 33
-1 6 21 -19 15 -25 29 -25 59 0 78 81 110 120 47 25 -40 19 -74 -16 -105 -15
-14 -20 -23 -12 -24 7 -1 2 -5 -12 -10 -21 -7 -19 -8 10 -4 116 16 94 205 -24
205 -6 0 -22 -8 -36 -17z"/>
<path d="M4525 883 c-81 -20 -97 -151 -23 -189 44 -23 106 -13 135 21 44 50
22 143 -38 164 -33 11 -41 12 -74 4z m92 -26 c4 -5 -1 -5 -12 -1 -18 7 -18 6
3 -20 35 -46 28 -97 -17 -120 -36 -18 -72 -6 -94 32 -17 28 -17 37 -7 63 7 16
24 36 38 43 27 14 75 16 89 3z"/>
<path d="M4795 883 c-11 -3 -26 -10 -34 -17 -11 -8 -15 -8 -18 2 -3 6 -10 12
-16 12 -9 0 -12 -41 -14 -140 -1 -120 1 -140 14 -140 13 0 15 10 10 62 -3 34
-2 57 1 52 14 -18 53 -34 86 -34 52 0 86 40 86 101 0 73 -51 118 -115 102z
m65 -45 c43 -47 13 -128 -48 -128 -40 0 -62 19 -68 62 -5 30 -2 41 19 62 32
32 69 33 97 4z"/>
<path d="M5254 883 c-33 -6 -65 -47 -70 -90 -7 -55 23 -99 73 -108 75 -12 128
29 128 101 0 68 -59 112 -131 97z m75 -40 c32 -27 37 -73 11 -106 -56 -71
-159 4 -119 86 10 21 10 21 -5 3 -9 -11 -16 -15 -16 -9 0 6 7 16 15 23 8 7 15
9 15 6 0 -4 8 -2 18 3 26 16 57 13 81 -6z"/>
<path d="M5770 881 c0 -6 -6 -8 -14 -5 -24 9 -54 -14 -66 -52 -27 -82 31 -156
111 -140 44 8 63 21 54 35 -4 8 -11 9 -18 3 -21 -16 -58 -21 -82 -10 -24 11
-48 51 -38 62 4 3 40 6 81 6 l75 0 -7 32 c-4 18 -14 41 -24 50 -21 21 -72 35
-72 19z"/>
<path d="M6170 877 c-39 -19 -62 -75 -49 -119 18 -67 87 -97 154 -66 26 12 29
37 4 29 -8 -3 -33 -6 -55 -9 -35 -3 -44 0 -58 19 -30 43 -22 49 64 49 44 0 80
4 80 9 0 29 -26 74 -51 86 -34 18 -56 19 -89 2z"/>
<path d="M7454 878 c-12 -5 -27 -21 -33 -34 -16 -36 -14 -106 4 -131 21 -30
74 -39 114 -19 30 16 31 16 31 -4 0 -26 -43 -70 -67 -70 -10 0 -30 7 -45 14
-19 10 -30 11 -34 4 -12 -19 28 -38 76 -38 36 0 52 5 68 23 20 21 23 38 27
140 4 99 2 117 -10 117 -8 0 -15 -5 -15 -11 0 -7 -10 -5 -25 5 -27 18 -60 20
-91 4z m94 -34 c29 -20 30 -81 2 -112 -29 -31 -75 -29 -96 4 -51 76 21 159 94
108z"/>
</g>
</svg>
